<?xml version="1.0" encoding="UTF-8"?>
<svg id="Layer_1" data-name="Layer 1" xmlns="http://www.w3.org/2000/svg" viewBox="0 0 1000 1000">
  <defs>
    <style>
      .cls-1 {
        fill: #fff;
      }

      .cls-2 {
        font-family: NafeesNaskhv2.01, 300;
        font-size: 195.33px;
      }

      .cls-2, .cls-3 {
        fill: #f7941d;
      }

      .cls-4 {
        fill: #39b54a;
        font-family: Exotic350BT-Bold, 'Exotc350 Bd BT';
        font-size: 107.25px;
        font-weight: 700;
      }
    </style>
  </defs>
  <rect class="cls-1" width="1000" height="1000"/>
  <text class="cls-4" transform="translate(210.71 657.94) scale(1.11 1)"><tspan x="0" y="0">PAKISTANI</tspan></text>
  <g>
    <path class="cls-3" d="M621.06,589.85c-2.35-1.88-5.17-5.4-8.46-10.57v-.07c-.78-1.08-1.53-2.18-2.23-3.31-.16-.14-.31-.33-.47-.56-68.87-99.97-109.07-158.17-120.59-174.61,3.21-8.17,5.37-14.45,6.46-18.84,1.1-4.39,1.76-6.82,2-7.29,1.33-.61,2.43-.87,3.29-.77,.78,1.32,1.25,4.88,1.41,10.71,3.21,12.82,7.25,22.78,12.11,29.86l109.3,154.75c.78,1.08,1.57,2.18,2.35,3.31h.12c3.84,4.98,7.33,8.12,10.46,9.44,1.8,.52,3.92,.77,6.35,.77v13.17c-2.82,0-5.37-.09-7.64-.28-5.49-.8-10.3-2.7-14.46-5.71Z"/>
    <path class="cls-3" d="M678.88,582.52l1.18,.14v13.17l-3.29-.28c-5.8-.7-11.01-2.56-15.63-5.56-2.04-1.31-3.92-3.31-5.64-5.99-.86-2.07-1.88-3.38-3.06-3.94-1.57-.37-2.78-.56-3.64-.56-6.27,0-11.36,3.62-15.28,10.85-4.62,7.75-8.07,12.14-10.34,13.17-2.66,2.11-5.91,3.17-9.75,3.17h-1.18c-4.31,0-8.15-1.81-11.52-5.42-2.82-3.15-4.23-6.93-4.23-11.34,0-5.21,2.47-10.42,7.4-15.64,2.43-2.35,6.04-5,10.81-7.96,5.17-2.86,10.58-5.24,16.22-7.11,1.41-.42,2.59-.63,3.53-.63h.59c.55,0,.86,.1,.94,.28v.14c0,.66-2.82,1.95-8.46,3.87-3.13,1.17-6.97,3.1-11.52,5.78-3.76,2.68-5.72,4.11-5.88,4.3-5.95,5.4-8.93,10.57-8.93,15.5,0,3.95,1.72,7.11,5.17,9.51,1.57,.89,2.98,1.34,4.23,1.34h.71c4.15,0,7.76-1.95,10.81-5.85,1.33-1.27,4.9-6.22,10.7-14.86,2.35-3.1,5.17-5.87,8.46-8.31,3.21-2.21,7.01-3.31,11.4-3.31h.24c4.23,0,8.07,2.56,11.52,7.68,1.02,1.5,2.7,3.01,5.05,4.51,2.51,1.79,5.64,2.91,9.4,3.38Z"/>
    <path class="cls-3" d="M680.06,582.66c7.29,0,12.07-.36,14.34-1.09,2.27-.73,3.92-1.54,4.94-2.43-3.21-.84-5.88-2.58-7.99-5.21-1.96-2.72-2.94-5.54-2.94-8.45,0-2.35,.39-4.32,1.18-5.92,.71-1.74,2.07-3.45,4.11-5.14,3.68-3.24,7.36-5,11.05-5.28l7.64-.49c2.82,0,7.05,.45,12.69,1.34l11.16,1.55,4,.21,4,.07,5.05-.07,5.29-.28c1.49,0,2.66,.19,3.53,.56,1.1,.28,1.65,1.08,1.65,2.4l-.12,1.76c0,.38-.27,.96-.82,1.76l-2.12,3.66c-.78,1.22-3.49,2.68-8.11,4.37-4.15,1.22-8.42,2.98-12.81,5.28l-7.29,4.15c-1.41,.85-3.04,1.84-4.88,2.99-1.84,1.15-3.86,2.45-6.05,3.91-8.62,5.45-15.2,9.06-19.75,10.85-4.55,1.79-10.46,2.68-17.75,2.68v-13.17Zm17.16-13.45c.47,1.41,1.17,2.68,2.12,3.8,.86,.85,2.98,1.83,6.35,2.96l2.47-1.27,2.82-1.55,5.41-3.59,9.64-6.13-2.7-.56-3.64-.7-5.76-.77-3.53-.42-2.23-.07c-2.82,0-5.02,.42-6.58,1.27-1.57,.84-2.78,1.76-3.64,2.75l-.59,1.62-.35,1.34c0,.75,.08,1.2,.24,1.34Zm45.37,19.23l1.41-.35c.86,0,2.9,.77,6.11,2.32l5.88,2.47c.71,.14,1.1,.38,1.18,.7,0,1.08-1.37,2.68-4.11,4.79l-5.29,4.44c-.71,.61-1.41,.99-2.12,1.13-1.18,0-3.41-.77-6.7-2.32l-3.88-1.62-2.23-.92c-.63-.24-.98-.49-1.06-.77,0-.7,1.8-2.51,5.41-5.42l5.41-4.44Z"/>
  </g>
  <g>
    <path class="cls-3" d="M309.94,615.28c-.3-.3-.3-.75,0-1.35l7.15-14.36c.45-.9,.89-1.35,1.34-1.35,.75,0,3.88,1.91,9.39,5.72,5.51,3.81,8.27,6.1,8.27,6.84,0,2.39-2.46,7.48-7.38,15.26-.6,1.04-1.19,1.35-1.79,.9-5.37-4.19-11.03-8.08-16.99-11.67Z"/>
    <path class="cls-3" d="M314.63,561.8c33.98,0,76.83-11.67,128.55-35.01,2.83-1.2,4.69-1.8,5.59-1.8,1.04,0,1.56,.53,1.56,1.57,0,.75-.15,1.65-.45,2.69-.45,2.84-.67,5.46-.67,7.85,0,11.82,6.11,17.73,18.33,17.73v21.99c-11.62,0-19.45-4.49-23.47-13.46-2.09-4.64-3.13-10.32-3.13-17.05,0-.6-.22-.75-.67-.45-53.65,25.13-98.52,37.7-134.58,37.7-22.8,0-39.27-5.99-49.41-17.95-7.01-8.38-10.51-19-10.51-31.87,0-13.76,1.92-23.65,6.95-36.97,1.76-4.18,3.16-7.47,3.95-9.54,80.76-204.52,416.63-261.72,471.3,22.44,.55,2.87,.91,5.77,1.08,8.69,.08,1.46,.15,2.92,.28,4.37l1.14,12.39c-23.26-224.25-363.11-291.75-475.27-26.97-2.21,5.22-4.07,12.72-4.07,18.86,0,7.78,3.8,14.81,11.4,21.09,11.18,9.13,28.54,13.69,52.09,13.69Z"/>
    <path class="cls-3" d="M467.32,619.47l5.59-11.44c.45-.9,.89-1.35,1.34-1.35,.74,0,3.91,1.91,9.5,5.72,5.59,3.82,8.38,6.02,8.38,6.62,0,2.4-2.46,7.55-7.38,15.48-.6,.9-1.19,1.12-1.79,.67-4.92-3.59-10.36-7.33-16.32-11.22-1.94,4.64-3.95,8.53-6.04,11.67-.45,1.05-1.04,1.35-1.79,.9-5.37-4.19-11.03-8.16-16.99-11.89-.3-.15-.3-.6,0-1.35l7.15-14.14c.45-.9,.89-1.35,1.34-1.35,.6,0,3.24,1.57,7.94,4.71s7.71,5.46,9.05,6.96Z"/>
    <path class="cls-3" d="M491.02,538.24c0,12.57-2.68,22.37-8.05,29.4-4.62,6.14-10.06,9.2-16.32,9.2v-21.99c8.5,0,14.08-2.02,16.77-6.06,0-2.39-1.49-5.98-4.47-10.77-1.34-2.09-2.01-4.11-2.01-6.06,0-1.2,1.41-6.36,4.25-15.48,.59-1.8,1.19-2.69,1.79-2.69,.74,0,1.64,1.2,2.68,3.59,3.58,7.48,5.37,14.44,5.37,20.87Z"/>
  </g>
  <path class="cls-3" d="M479.52,484.82c0,11.02-4.38,16.53-13.13,16.53-1.48,0-3.64-.39-6.48-1.16-2.84-.77-5-1.16-6.48-1.16-3.58,0-10.54,3.01-20.88,9.04-10.34,6.03-17.87,9.04-22.59,9.04-2.56,0-5.37-.91-8.44-2.73,7.39,0,14.18-1.54,20.37-4.62,2.39-1.14,7.42-4.39,15.09-9.76,6.25-4.34,12.05-7.36,17.39-9.07,2.1,3.63,4.12,5.44,6.05,5.44,2.33,0,4.66-2.47,6.99-7.41,1.76,2.63,3.24,3.95,4.43,3.95,1.02,0,3.58-2.7,7.67-8.11Zm-46.44-28.86c0,1.64-.13,3.86-.39,6.67-2.85-5.87-5.05-8.8-6.61-8.8-2.94,0-4.79,7.62-5.57,22.87-5.44-15.55-10.22-23.32-14.32-23.32-1.68,0-3.11,1.02-4.28,3.06-1.68-3.89-2.53-6.81-2.53-8.76,0-1.6,.65-2.4,1.94-2.4,1.86,0,4.51,1.32,7.97,3.96,.17,.13,2.53,2.14,7.06,6.03,5.18-5.92,9.22-8.88,12.12-8.88,3.07,0,4.6,3.19,4.6,9.58Z"/>
  <path class="cls-3" d="M568.63,562.18c0,4.52-1.95,6.78-5.84,6.78-4.98,0-7.47-3.52-7.47-10.55,0-2.69,1.24-6.1,3.71-10.22,0,8.9,1.18,13.35,3.53,13.35,1.48,0,3.33-1.45,5.55-4.36,.35,1.61,.52,3.28,.52,5.01Z"/>
  <path class="cls-3" d="M326.39,505.77c1.9-5.98,6-10.69,12.32-14.13,5.6-2.42,11.18-4.88,16.74-7.37,6.15-2.93,9.96-6.68,11.41-11.27,1.31-4.12,1.24-6.42-.21-6.87-2.38-.75-6.16-.39-11.34,1.09-5.41,1.64-8.45,3.54-9.14,5.7-.38,1.19-.31,2.68,.19,4.49,.58,2.29,.88,3.74,.91,4.38-13.48,6-21.6,13.36-24.37,22.09-.46,1.44-.74,2.88-.88,4.3,1.33-.33,2.66-.64,4-.96,.1-.48,.22-.96,.37-1.44Z"/>
  <path class="cls-3" d="M332.23,528.82c-3.24-4-5.2-7.81-5.9-11.43-1.23,.26-2.46,.51-3.69,.77,1.42,6.84,6.66,13.42,15.73,19.76,2.83,1.98,4.79,3.14,5.87,3.48,5.62,1.78,10.96,2.91,16.03,3.38l.45-.88c-4.63-.96-8.57-1.95-11.82-2.98-6.08-1.93-11.64-5.96-16.67-12.1Z"/>
  <path class="cls-3" d="M416.23,492.33c-31.61,4.9-62.83,10.33-92.63,17.49-1.33,.32-2.67,.63-4,.96-18.34,4.53-36.12,9.74-53.09,15.94,18.23-3.22,36.05-6.62,53.4-10.23,1.23-.26,2.46-.51,3.69-.77,32.91-6.93,64.02-14.63,92.64-23.4Z"/>
  <text class="cls-2" transform="translate(445.29 535.99) scale(1.34 1)"><tspan x="0" y="0">زن</tspan></text>
</svg>